<svg width="1140" height="424" viewBox="0 0 1140 424" fill="none" xmlns="http://www.w3.org/2000/svg">
<mask id="mask0_1670_3945" style="mask-type:alpha" maskUnits="userSpaceOnUse" x="12" y="111" width="1123" height="250">
<path d="M78.9461 305.179C66.4066 305.179 55.1033 302.265 45.0364 296.437C35.146 290.608 27.2868 282.484 21.4585 272.064C15.8069 261.467 12.9811 249.281 12.9811 235.505C12.9811 221.376 15.8952 209.101 21.7234 198.681C27.5517 188.084 35.4993 179.872 45.5662 174.044C55.6332 168.215 66.9364 165.301 79.476 165.301C92.1921 165.301 103.495 168.215 113.386 174.044C123.276 179.872 131.047 187.996 136.699 198.416C142.527 208.836 145.441 221.111 145.441 235.24C145.441 249.369 142.527 261.644 136.699 272.064C131.047 282.484 123.188 290.608 113.121 296.437C103.054 302.265 91.6623 305.179 78.9461 305.179ZM78.9461 282.396C86.1873 282.396 92.722 280.63 98.5502 277.098C104.555 273.565 109.324 268.355 112.856 261.467C116.565 254.403 118.419 245.66 118.419 235.24C118.419 224.82 116.653 216.166 113.121 209.278C109.589 202.214 104.82 196.915 98.8151 193.383C92.9869 189.851 86.5405 188.084 79.476 188.084C72.4114 188.084 65.8768 189.851 59.8719 193.383C53.867 196.915 49.0102 202.214 45.3013 209.278C41.769 216.166 40.0029 224.82 40.0029 235.24C40.0029 245.66 41.769 254.403 45.3013 261.467C49.0102 268.355 53.7787 273.565 59.607 277.098C65.6118 280.63 72.0582 282.396 78.9461 282.396ZM176.604 302V111.258H203.096V190.204C207.512 182.433 213.605 176.34 221.376 171.924C229.323 167.509 238.066 165.301 247.603 165.301C258.2 165.301 267.295 167.509 274.89 171.924C282.484 176.163 288.312 182.609 292.374 191.263C296.436 199.741 298.467 210.426 298.467 223.319V302H272.24V225.968C272.24 213.605 269.591 204.245 264.293 197.886C258.994 191.352 251.135 188.084 240.715 188.084C233.65 188.084 227.292 189.762 221.641 193.118C215.989 196.474 211.485 201.419 208.13 207.953C204.774 214.312 203.096 222.082 203.096 231.266V302H176.604ZM400.13 302V111.258H426.622V190.204C431.038 182.433 437.131 176.34 444.902 171.924C452.85 167.509 461.592 165.301 471.129 165.301C481.726 165.301 490.821 167.509 498.416 171.924C506.01 176.163 511.838 182.609 515.9 191.263C519.963 199.741 521.994 210.426 521.994 223.319V302H495.767V225.968C495.767 213.605 493.117 204.245 487.819 197.886C482.521 191.352 474.661 188.084 464.241 188.084C457.177 188.084 450.818 189.762 445.167 193.118C439.515 196.474 435.012 201.419 431.656 207.953C428.3 214.312 426.622 222.082 426.622 231.266V302H400.13ZM616.276 305.179C603.56 305.179 592.257 302.265 582.366 296.437C572.476 290.608 564.705 282.484 559.053 272.064C553.578 261.644 550.841 249.546 550.841 235.77C550.841 221.641 553.578 209.366 559.053 198.946C564.705 188.349 572.476 180.137 582.366 174.309C592.257 168.304 603.737 165.301 616.806 165.301C629.875 165.301 641.09 168.215 650.451 174.044C659.811 179.872 667.052 187.643 672.174 197.357C677.296 206.894 679.857 217.491 679.857 229.147C679.857 230.913 679.769 232.856 679.592 234.975C679.592 236.918 679.504 239.126 679.327 241.598H570.18V222.789H653.365C652.835 211.662 649.126 203.008 642.238 196.827C635.35 190.469 626.785 187.29 616.541 187.29C609.3 187.29 602.677 188.968 596.672 192.323C590.667 195.502 585.81 200.271 582.101 206.629C578.569 212.81 576.803 220.67 576.803 230.207V237.624C576.803 247.515 578.569 255.904 582.101 262.792C585.81 269.503 590.667 274.625 596.672 278.157C602.677 281.513 609.212 283.191 616.276 283.191C624.754 283.191 631.73 281.336 637.205 277.627C642.68 273.918 646.742 268.885 649.391 262.527H675.883C673.587 270.651 669.702 277.981 664.227 284.515C658.752 290.873 651.952 295.907 643.828 299.616C635.88 303.325 626.696 305.179 616.276 305.179ZM718.964 360.282L751.549 287.164H743.866L691.147 168.48H719.758L761.616 265.441L803.738 168.48H831.555L746.78 360.282H718.964ZM870.309 360.282L902.895 287.164H895.212L842.493 168.48H871.104L912.962 265.441L955.084 168.48H982.9L898.126 360.282H870.309ZM1021.66 360.282L1054.24 287.164H1046.56L993.839 168.48H1022.45L1064.31 265.441L1106.43 168.48H1134.25L1049.47 360.282H1021.66Z" fill="black"/>
</mask>
<g mask="url(#mask0_1670_3945)">
<g filter="url(#filter0_f_1670_3945)">
<ellipse cx="144.153" cy="560.852" rx="324.518" ry="264.827" fill="#E0E0E0"/>
<ellipse cx="220.002" cy="511.363" rx="336.193" ry="276.812" fill="#F5655C"/>
<ellipse cx="798.834" cy="186.806" rx="348.899" ry="294.252" fill="#DC6020"/>
<circle cx="757.038" cy="374.212" r="186.64" fill="#EA7858"/>
<ellipse cx="326.594" cy="187.163" rx="411.533" ry="410.692" fill="#F7ABB6"/>
<ellipse cx="1060.71" cy="403.763" rx="286.635" ry="259.4" fill="#DFAFCC"/>
<ellipse cx="651.293" cy="456.447" rx="353.159" ry="258.507" fill="#A5B676"/>
</g>
</g>
<defs>
<filter id="filter0_f_1670_3945" x="-361.793" y="-404.957" width="1890.56" height="1412.06" filterUnits="userSpaceOnUse" color-interpolation-filters="sRGB">
<feFlood flood-opacity="0" result="BackgroundImageFix"/>
<feBlend mode="normal" in="SourceGraphic" in2="BackgroundImageFix" result="shape"/>
<feGaussianBlur stdDeviation="90.714" result="effect1_foregroundBlur_1670_3945"/>
</filter>
</defs>
</svg>
